<svg xmlns="http://www.w3.org/2000/svg" xmlns:xlink="http://www.w3.org/1999/xlink" version="1.1" id="Layer_1" x="0px" y="0px" viewBox="0 0 672.6 165.7" style="enable-background:new 0 0 672.6 165.7;" xml:space="preserve"><style type="text/css">
	.st0{fill:#FFFFFF;}
	.st1{fill:#FFD700;}
	.st2{fill:#2B64FF;}
</style><g><path class="st0" d="M232.5,56.9l-35.6,51h35.6v16.5h-58.5V109l35.4-51h-35.4V41.5h58.5V56.9z"/><path class="st0" d="M271.4,125.3c-19.4,0-33.3-13-33.3-33.9c0-20.9,13.7-33.9,33.3-33.9c19.2,0,32.8,12.7,32.8,32.8   c0,1.9-0.1,3.9-0.4,5.9h-45.7c0.7,8.6,6,12.6,12.5,12.6c5.7,0,8.9-2.8,10.5-6.4h21.5C299.5,115.4,287.8,125.3,271.4,125.3z    M258.3,85.1h25.3c0-7.2-5.7-11.3-12.4-11.3C264.6,73.7,259.5,77.8,258.3,85.1z"/><path class="st0" d="M356.8,88.6c0-9-5-13.9-12.6-13.9c-7.7,0-12.6,5-12.6,13.9v35.8h-20.2V58.5h20.2v8.7c4-5.5,11.1-9.4,19.9-9.4   c15.2,0,25.4,10.4,25.4,28.1v38.5h-20.1V88.6z"/><path class="st0" d="M412.3,57.6c8.7,0,16.3,4,20.3,10V37h20.2v87.4h-20.2v-9.4c-3.7,6-10.6,10.4-20.3,10.4c-16.2,0-29-13.2-29-34   C383.3,70.6,396.2,57.6,412.3,57.6z M418.3,75.2c-7.6,0-14.4,5.7-14.4,16.2s6.8,16.4,14.4,16.4c7.7,0,14.4-5.8,14.4-16.3   S425.9,75.2,418.3,75.2z"/><path class="st0" d="M502.1,57.6c16.3,0,29,13,29,33.8c0,20.8-12.9,34-29,34c-9.7,0-16.6-4.4-20.3-10.2v9.2h-20.2V37h20.2v30.8   C485.4,61.9,492.6,57.6,502.1,57.6z M496,75.2c-7.6,0-14.4,5.8-14.4,16.3s6.8,16.3,14.4,16.3c7.7,0,14.5-5.9,14.5-16.4   S503.7,75.2,496,75.2z"/><path class="st0" d="M571.7,125.3c-19.4,0-34-13-34-33.9c0-20.9,15-33.9,34.2-33.9c19.4,0,34.2,13,34.2,33.9   C606.2,112.3,591.1,125.3,571.7,125.3z M571.7,107.9c7.2,0,13.9-5.3,13.9-16.4c0-11.2-6.6-16.4-13.7-16.4   c-7.3,0-13.7,5.2-13.7,16.4C558.2,102.6,564.4,107.9,571.7,107.9z"/><path class="st0" d="M637.3,106.1l-10.6,18.3h-21.8l21.7-33.6l-22.3-32.2h22.7l12.6,18.2l10.6-18.2H672L650,91.7l22.7,32.7H650   L637.3,106.1z"/><g><g><polygon class="st1" points="86.9,8.8 71.9,0 0.2,42.1 0.2,50.3 36.9,71.8 53.1,62.3 25.8,46.2 71.9,19.1    "/></g><g><polygon class="st2" points="71.7,146.5 25.6,119.4 79.7,87.6 79.8,87.7 143.3,50.3 143.3,42.1 86.6,8.8 71.7,19.1 117.7,46.2      63.6,78 63.5,78 0,115.4 0,123.5 55.4,156.1    "/></g><g><polygon class="st1" points="55.2,156.1 71.5,165.7 143.2,123.5 143.2,115.4 106.6,93.8 90.3,103.4 117.6,119.4 71.5,146.5         "/></g></g></g></svg>